<?xml version="1.0" encoding="utf-8"?>
<!-- Generator: Adobe Illustrator 25.2.0, SVG Export Plug-In . SVG Version: 6.00 Build 0)  -->
<svg version="1.1" id="eb2ab7bc-aa96-458c-8f09-be0a096bde58"
	 xmlns="http://www.w3.org/2000/svg" xmlns:xlink="http://www.w3.org/1999/xlink" x="0px" y="0px" viewBox="0 0 50 50"
	 style="enable-background:new 0 0 50 50;" xml:space="preserve">
<style type="text/css">
	.st0{fill:#FFFFFF;}
</style>
<path class="st0" d="M15.5,29.7c-1.2-0.1-2.4-0.3-3.5-0.5c-2.5-0.6-4.2-2.8-4.3-5.3c-0.1-2,0.3-4,1.1-5.9c1.2-2.9,3-5.4,5.3-7.4
	c2.9-2.4,6.6-3.7,10.4-3.5c6,0.1,11.6,3.1,14.9,8.1c1.7,2.5,2.7,5.5,2.9,8.5c0.5,4.2-0.5,8.5-2.8,12.1c-2,3.3-5.2,5.7-8.9,6.8
	c-1.6,0.5-3.3,0.6-4.9,0.1c-2.6-0.7-4.5-2.8-5-5.5c-0.3-1.2-0.4-2.5-0.3-3.8c0-0.6,0-1.2-0.2-1.7c-0.3-1.1-1.3-1.9-2.5-2
	c-0.7-0.1-1.5-0.1-2.2-0.1L15.5,29.7z M38.3,26.4c0-1.8-1.4-3.2-3.2-3.2c-1.8,0-3.2,1.4-3.2,3.2c0,1.8,1.4,3.2,3.2,3.2c0,0,0,0,0,0
	C36.9,29.6,38.3,28.2,38.3,26.4L38.3,26.4z M32.4,21.2c1.8,0,3.2-1.4,3.2-3.2c0-1.7-1.4-3.1-3.1-3.2c-1.8,0-3.2,1.4-3.3,3.1
	S30.6,21.1,32.4,21.2C32.4,21.2,32.4,21.2,32.4,21.2z M14.2,20.5c0,1.8,1.4,3.2,3.2,3.2s3.2-1.4,3.2-3.2c0-1.8-1.4-3.2-3.2-3.2
	c0,0,0,0,0,0C15.6,17.3,14.2,18.7,14.2,20.5L14.2,20.5z M23.9,17.9c1.8,0,3.2-1.4,3.2-3.2c0-1.8-1.4-3.2-3.2-3.2
	c-1.7,0-3.2,1.4-3.2,3.1C20.7,16.4,22.1,17.9,23.9,17.9C23.9,17.9,23.9,17.9,23.9,17.9L23.9,17.9z M33.4,33.9c0-1.8-1.4-3.2-3.2-3.2
	c-1.8,0-3.2,1.4-3.2,3.2c0,1.8,1.4,3.2,3.2,3.2c0,0,0,0,0,0C32,37.1,33.4,35.6,33.4,33.9L33.4,33.9z"/>
</svg>
