<?xml version="1.0" encoding="utf-8"?>
<!-- Generator: Adobe Illustrator 25.2.0, SVG Export Plug-In . SVG Version: 6.00 Build 0)  -->
<svg version="1.1" id="Capa_1" xmlns="http://www.w3.org/2000/svg" xmlns:xlink="http://www.w3.org/1999/xlink" x="0px" y="0px"
	 viewBox="0 0 239.2 172.6" style="enable-background:new 0 0 239.2 172.6;" xml:space="preserve">
<style type="text/css">
	.st0{fill-rule:evenodd;clip-rule:evenodd;fill:#FFFFFF;}
</style>
<g>
	<g>
		<g>
			<path class="st0" d="M190,15.8L190,15.8c4.6,4.6,4.6,12,0.1,16.6L65.7,156.7c-4.5,4.6-11.9,4.6-16.4,0.1l-0.1-0.1
				c-4.6-4.6-4.6-12-0.1-16.6L173.4,15.9C178,11.3,185.4,11.3,190,15.8z"/>
		</g>
	</g>
	<g>
		<g>
			<path class="st0" d="M65.8,15.9L190,140.2c4.5,4.5,4.5,11.9-0.1,16.6l-0.1,0.1c-4.5,4.5-11.9,4.5-16.4-0.1L49.2,32.4
				c-4.5-4.5-4.5-11.9,0-16.5l0.1-0.1C53.8,11.3,61.2,11.3,65.8,15.9z"/>
		</g>
	</g>
</g>
</svg>
