<?xml version="1.0" encoding="utf-8"?>
<!-- Generator: Adobe Illustrator 25.2.0, SVG Export Plug-In . SVG Version: 6.00 Build 0)  -->
<svg version="1.1" id="Capa_1" xmlns="http://www.w3.org/2000/svg" xmlns:xlink="http://www.w3.org/1999/xlink" x="0px" y="0px"
	 viewBox="0 0 50 50" style="enable-background:new 0 0 50 50;" xml:space="preserve">
<style type="text/css">
	.st0{fill:#B73F36;}
</style>
<g>
	<polygon class="st0" points="15.6,8.7 16.5,9.6 15.6,10.6 14.6,9.6 	"/>
	<path class="st0" d="M21.7,19.2V8.8l-3-5.2h-5l-3.4,5.2H5.6C5.3,8.8,5,9,5,9.3v0.9c0,0.3,0.2,0.5,0.5,0.5h3.9v8.4h5.1l23.2,27.2H45
		L21.7,19.2z M15.6,11.6l-1.9-1.9l1.9-1.9l1.9,1.9L15.6,11.6z"/>
	<polygon class="st0" points="13.9,20.2 36.2,46.4 31.4,46.4 23.2,36.4 19.9,36.4 19.9,46.4 17.1,46.3 17,36.6 20.1,33.3 11.3,22.7 
		10.9,23.2 19.2,33.3 16.3,36.2 14.9,36.2 14.9,44.8 16.1,46.4 14.7,46.4 14.1,45.3 13.5,46.4 11.9,46.4 13.3,44.8 13.3,35.9 
		5.8,26.9 5.8,23.9 9.4,20.2 	"/>
</g>
</svg>
