<?xml version="1.0" encoding="utf-8"?>
<!-- Generator: Adobe Illustrator 25.2.0, SVG Export Plug-In . SVG Version: 6.00 Build 0)  -->
<svg version="1.1" id="eca064f7-8355-49ce-b627-d0743020c5e9"
	 xmlns="http://www.w3.org/2000/svg" xmlns:xlink="http://www.w3.org/1999/xlink" x="0px" y="0px" viewBox="0 0 50 50"
	 style="enable-background:new 0 0 50 50;" xml:space="preserve">
<style type="text/css">
	.st0{fill:#B73F36;}
</style>
<g>
	<g>
		<g>
			<polygon class="st0" points="25.8,27.4 32.4,36.5 32.4,43.1 25.8,34 			"/>
			<polygon class="st0" points="24.2,27.4 17.6,36.5 17.6,43.1 24.2,34 			"/>
		</g>
		
			<rect x="23.1" y="41.1" transform="matrix(0.7071 -0.7071 0.7071 0.7071 -23.1484 30.2987)" class="st0" width="3.9" height="3.9"/>
	</g>
	<g>
		<g>
			<polygon class="st0" points="25.8,22.6 32.4,13.5 32.4,6.9 25.8,16 			"/>
			<polygon class="st0" points="24.2,22.6 17.6,13.5 17.6,6.9 24.2,16 			"/>
		</g>
		<rect x="23.1" y="5" transform="matrix(0.7071 -0.7071 0.7071 0.7071 2.4372 19.7006)" class="st0" width="3.9" height="3.9"/>
	</g>
	<g>
		<g>
			<g>
				<polygon class="st0" points="27.4,24.2 36.5,17.6 43.1,17.6 34,24.2 				"/>
				<polygon class="st0" points="27.4,25.8 36.5,32.4 43.1,32.4 34,25.8 				"/>
			</g>
			
				<rect x="41.1" y="23.1" transform="matrix(0.7071 -0.7071 0.7071 0.7071 -5.0569 37.7924)" class="st0" width="3.9" height="3.9"/>
		</g>
		<g>
			<g>
				<polygon class="st0" points="22.6,24.2 13.5,17.6 6.9,17.6 16,24.2 				"/>
				<polygon class="st0" points="22.6,25.8 13.5,32.4 6.9,32.4 16,25.8 				"/>
			</g>
			<rect x="5" y="23.1" transform="matrix(0.7071 -0.7071 0.7071 0.7071 -15.6537 12.2071)" class="st0" width="3.9" height="3.9"/>
		</g>
	</g>
</g>
</svg>
