<?xml version="1.0" encoding="utf-8"?>
<!-- Generator: Adobe Illustrator 25.2.0, SVG Export Plug-In . SVG Version: 6.00 Build 0)  -->
<svg version="1.1" id="efbb0725-1d7a-4565-8823-6b1eff0b0b87"
	 xmlns="http://www.w3.org/2000/svg" xmlns:xlink="http://www.w3.org/1999/xlink" x="0px" y="0px" viewBox="0 0 50 50"
	 style="enable-background:new 0 0 50 50;" xml:space="preserve">
<style type="text/css">
	.st0{fill:#FFFFFF;}
</style>
<g>
	<path class="st0" d="M42.5,36.3H7.6l0,0v2c0.7,0,1.4,0,2.1,0c0.2,0,0.4,0.1,0.4,0.3c0.3,0.7,0.7,1.3,1,2c0.6,1.1,1.7,1.9,3,1.8
		c3.6,0,7.3,0,10.9,0s7.3,0,10.9,0c1.3,0,2.4-0.7,3-1.8c0.3-0.7,0.7-1.3,1-2c0.1-0.2,0.3-0.3,0.5-0.3c0.7,0,1.4,0,2.1,0L42.5,36.3
		L42.5,36.3z"/>
	<path class="st0" d="M39.1,34.2H11c1.2-5.5,5.4-9.7,10.9-11c-0.1-1,0.3-2,1.1-2.7c0.6-0.5,1.4-0.7,2.1-0.7c1.7,0.1,2.7,1.3,2.9,3.4
		C33.6,24.5,37.8,28.7,39.1,34.2z"/>
	<path class="st0" d="M32,11.7L32,11.7c0.6,0,1,0.4,1,1c0,0.1,0,0.2,0,0.3c-0.1,0.2-0.1,0.4-0.2,0.5c-0.1,0.1-0.1,0.3-0.2,0.4
		c-0.7,1.1-0.7,2.5,0,3.7c0.2,0.4,0.3,0.7,0.4,1.1c0.1,0.5-0.2,1-0.7,1.2c-0.1,0-0.2,0-0.2,0l0,0c-0.4,0-0.8-0.3-1-0.7
		c-0.2-0.4-0.4-0.8-0.6-1.1c-0.9-1.4-0.9-3.3,0.1-4.7c0.2-0.3,0.4-0.6,0.5-1C31.2,11.9,31.6,11.7,32,11.7z"/>
	<path class="st0" d="M25.5,7.6L25.5,7.6c0.6,0,1,0.4,1,1c0,0.1,0,0.2,0,0.3c-0.1,0.2-0.1,0.4-0.2,0.5c-0.1,0.1-0.1,0.3-0.2,0.4
		c-0.7,1.1-0.7,2.5,0,3.7c0.2,0.4,0.3,0.7,0.4,1.1c0.1,0.5-0.2,1-0.7,1.2c-0.1,0-0.2,0-0.2,0l0,0c-0.4,0-0.8-0.3-1-0.7
		c-0.2-0.4-0.4-0.8-0.6-1.1c-0.9-1.4-0.9-3.3,0.1-4.7c0.2-0.3,0.4-0.6,0.5-1C24.7,7.8,25.1,7.6,25.5,7.6z"/>
	<path class="st0" d="M17.9,11.6L17.9,11.6c-0.6,0-1,0.4-1,1c0,0.1,0,0.2,0,0.3c0.1,0.2,0.1,0.4,0.2,0.5c0.1,0.1,0.1,0.3,0.2,0.4
		c0.7,1.1,0.7,2.5,0,3.7c-0.2,0.4-0.3,0.7-0.4,1.1c-0.1,0.5,0.2,1,0.7,1.2c0.1,0,0.2,0,0.2,0l0,0c0.4,0,0.8-0.3,1-0.7
		c0.2-0.4,0.4-0.8,0.6-1.1c0.9-1.4,0.9-3.3-0.1-4.7c-0.2-0.3-0.4-0.6-0.5-1C18.7,11.9,18.4,11.6,17.9,11.6z"/>
</g>
</svg>
