<?xml version="1.0" encoding="utf-8"?>
<!-- Generator: Adobe Illustrator 25.2.0, SVG Export Plug-In . SVG Version: 6.00 Build 0)  -->
<svg version="1.1" id="Capa_1" xmlns="http://www.w3.org/2000/svg" xmlns:xlink="http://www.w3.org/1999/xlink" x="0px" y="0px"
	 viewBox="0 0 239.2 172.6" style="enable-background:new 0 0 239.2 172.6;" xml:space="preserve">
<style type="text/css">
	.st0{fill-rule:evenodd;clip-rule:evenodd;fill:#FFFFFF;}
</style>
<g>
	<path class="st0" d="M235.2,87.9v0.1c0,7.5-6.1,13.6-13.6,13.6H16.6C9.1,101.7,3,95.6,3,88.1v-0.1c0-7.5,6.1-13.6,13.6-13.6h204.9
		C229.1,74.3,235.2,80.4,235.2,87.9z"/>
</g>
<g>
	<path class="st0" d="M235.2,155.4L235.2,155.4c0,7.5-6.1,13.7-13.6,13.7H16.6C9.1,169.1,3,163,3,155.5v0c0-7.5,6.1-13.6,13.6-13.6
		h204.9C229.1,141.8,235.2,147.9,235.2,155.4z"/>
</g>
<g>
	<path class="st0" d="M235.2,18.6v0.1c0,7.5-6.1,13.6-13.6,13.6H16.6C9.1,32.4,3,26.3,3,18.8v-0.1C3,11.1,9.1,5,16.6,5h204.9
		C229.1,5,235.2,11.1,235.2,18.6z"/>
</g>
</svg>
