<?xml version="1.0" encoding="utf-8"?>
<!-- Generator: Adobe Illustrator 25.2.0, SVG Export Plug-In . SVG Version: 6.00 Build 0)  -->
<svg version="1.1" id="f643da59-3a1d-4bc1-b574-121fc089d91f"
	 xmlns="http://www.w3.org/2000/svg" xmlns:xlink="http://www.w3.org/1999/xlink" x="0px" y="0px" viewBox="0 0 50 50"
	 style="enable-background:new 0 0 50 50;" xml:space="preserve">
<style type="text/css">
	.st0{fill:#FFFFFF;}
</style>
<g>
	<g>
		<path class="st0" d="M36.7,7.4c1,0,1.8,0.8,1.8,1.8v0c0,5.4,0,21.4,0,25.6c0,1-0.8,1.7-1.7,1.7H17.7V7.4H36.7z M34.5,22.2
			c0-0.1,0-0.1,0-0.2c0-1.1,0-2.2,0-3.3c0-0.1-0.1-0.3-0.2-0.3c-2-1-4-2-5.9-3.1c-0.2-0.1-0.3-0.1-0.5,0c-2,1-4,2-6,3.1
			c-0.1,0.1-0.2,0.2-0.2,0.3c0,1.1,0,2.2,0,3.3c0,0.1,0,0.1,0,0.2h1.2v4.4h-1.3v2h13v-2h-1.3v-4.4H34.5z"/>
		<path class="st0" d="M15.6,7.4v29.2c-0.7,0-1.4,0-2.1,0c-0.7,0-1.4,0.2-2,0.5c0-0.1,0-0.3,0-0.4c0-9,0-18.1,0-27.1
			c0-1.2,0.4-1.7,1.6-2.2L15.6,7.4z"/>
		<path class="st0" d="M38.5,38.7v3.9h-0.4c-8.2,0-16.3,0-24.5,0c-1.1,0.1-2-0.7-2.1-1.8s0.7-2,1.8-2.1c0.1,0,0.1,0,0.2,0
			c3.2,0,6.5,0,9.7,0L38.5,38.7L38.5,38.7z"/>
		<path class="st0" d="M32.4,20.2h-8.7c-0.1-0.3,0-0.4,0.2-0.5c1.3-0.6,2.6-1.3,3.8-2c0.2-0.1,0.4-0.1,0.5,0c1.3,0.7,2.6,1.3,3.8,2
			C32.4,19.7,32.5,19.9,32.4,20.2C32.4,20.1,32.4,20.1,32.4,20.2z"/>
		<path class="st0" d="M25,22.3H27v4.3H25V22.3z"/>
	</g>
	<path class="st0" d="M31.2,26.6h-2v-4.3h2V26.6z"/>
</g>
</svg>
