<?xml version="1.0" encoding="utf-8"?>
<!-- Generator: Adobe Illustrator 25.2.0, SVG Export Plug-In . SVG Version: 6.00 Build 0)  -->
<svg version="1.1" id="a6b99452-561a-4c58-9343-a83dd28a6445"
	 xmlns="http://www.w3.org/2000/svg" xmlns:xlink="http://www.w3.org/1999/xlink" x="0px" y="0px" viewBox="0 0 50 50"
	 style="enable-background:new 0 0 50 50;" xml:space="preserve">
<style type="text/css">
	.st0{fill:#FFFFFF;}
</style>
<g>
	<path class="st0" d="M5.916,14.857H8.15v24.764h0.441c2.81,0,5.621,0.02,8.43-0.006c2.068-0.049,4.09,0.621,5.72,1.895
		c0.305,0.251,0.694,0.379,1.089,0.357c0.783-0.028,1.568-0.029,2.35,0c0.406,0.023,0.806-0.108,1.12-0.367
		c1.04-0.838,2.266-1.413,3.576-1.675c0.633-0.124,1.277-0.19,1.922-0.2c2.872-0.02,5.744-0.009,8.616-0.009h0.447v-22.5h2.219
		v24.743h-0.426c-3.63,0-7.261,0-10.892,0c-1.828-0.013-3.577,0.745-4.818,2.087c-0.038,0.047-0.072,0.097-0.1,0.15H22.18
		c-0.028-0.053-0.062-0.103-0.1-0.15c-1.235-1.345-2.982-2.104-4.808-2.087c-3.786-0.004-7.572-0.004-11.359,0L5.916,14.857z"/>
	<path class="st0" d="M39.623,12.635v24.747h-0.4c-2.125,0-4.25-0.014-6.375,0c-2.343-0.045-4.635,0.68-6.525,2.066
		c-0.039,0.029-0.084,0.048-0.189,0.108v-0.459c0-7.58-0.048-23.323-0.065-24.34c-0.039-0.208,0.075-0.415,0.272-0.494
		c1.817-1.021,3.857-1.58,5.941-1.627c2.386-0.042,4.773-0.012,7.159-0.013C39.487,12.62,39.535,12.628,39.623,12.635z"/>
	<path class="st0" d="M14.9,5.9c2.546-0.054,4.979,1.049,6.615,3c1.551,1.847,2.39,4.188,2.364,6.6
		c0.046,7.294,0.019,14.589,0.021,21.884c-0.001,0.076-0.01,0.152-0.029,0.226c-0.258-2.11-1.359-4.026-3.053-5.311
		c-1.695-1.272-3.813-1.847-5.918-1.606V5.9z"/>
	<path class="st0" d="M21.637,38.17c-0.916-0.224-1.823-0.481-2.745-0.657c-0.577-0.093-1.161-0.135-1.745-0.124
		c-2.1-0.014-4.2-0.005-6.3-0.005h-0.428V10.4h2.2v22.508c0.271,0,0.5,0,0.734,0c1.18,0.023,2.369-0.041,3.537,0.09
		c2.581,0.375,4.557,2.489,4.758,5.089C21.65,38.115,21.646,38.143,21.637,38.17z"/>
</g>
</svg>
