<?xml version="1.0" encoding="utf-8"?>
<!-- Generator: Adobe Illustrator 25.2.0, SVG Export Plug-In . SVG Version: 6.00 Build 0)  -->
<svg version="1.1" id="be5c44e3-6e38-4ed3-b103-2cb8b6642707"
	 xmlns="http://www.w3.org/2000/svg" xmlns:xlink="http://www.w3.org/1999/xlink" x="0px" y="0px" viewBox="0 0 50 50"
	 style="enable-background:new 0 0 50 50;" xml:space="preserve">
<style type="text/css">
	.st0{fill:#FFFFFF;}
</style>
<path class="st0" d="M5.8,36.4V13.6c0.2-0.8,1-1.3,1.8-1.3c11.6,0,23.1,0,34.7,0c0.9-0.1,1.7,0.6,1.8,1.5c0,0.1,0,0.2,0,0.4
	c0,7.2,0,14.4,0,21.6c0,0.2,0,0.3,0,0.5c-0.2,0.8-1,1.4-1.8,1.3H10c-0.8,0-1.6,0-2.4,0c-0.7,0-1.4-0.4-1.6-1.1
	C5.9,36.5,5.9,36.4,5.8,36.4z M25,33.6h12.5c0.6,0,0.9-0.3,0.7-0.9c-0.5-1.8-1.1-3.6-2-5.2c-0.5-1.1-1.3-2.1-2.2-2.9
	c-0.8-0.7-2-0.9-3-0.6c-0.7,0.3-1.3,0.7-1.8,1.2c-0.6,0.6-1.3,1.3-1.9,1.9c-1.1,1-2.7,1.1-3.9,0.2c-0.4-0.2-0.7-0.5-1.1-0.7
	c-1.4-0.6-3-0.5-4.4,0.3c-1.7,0.9-3.1,2.1-4.3,3.6c-0.6,0.7-1.1,1.4-1.7,2.2c-0.3,0.5,0,0.9,0.5,0.9c0.1,0,0.2,0,0.3,0L25,33.6z
	 M18.5,21.6c1,0.6,2.2,0.7,3.2,0.1c1.2-0.6,1.7-2,1.2-3.2c-0.1-0.3-0.3-0.6-0.6-0.8c-0.7-0.7-1.7-0.9-2.6-0.8c-0.1,0-0.3,0-0.4-0.1
	c-1-1.4-3-1.6-4.4-0.6c-0.1,0.1-0.2,0.2-0.3,0.3c-0.1,0.1-0.3,0.2-0.4,0.1c-0.7-0.3-1.5-0.3-2.3-0.1c-1.3,0.3-2.1,1.7-1.8,3
	c0.1,0.3,0.2,0.5,0.3,0.8c0.7,0.9,1.8,1.4,2.9,1.2c0.2,0,0.4,0,0.5,0.2c0.5,0.6,1.3,0.9,2.1,0.9C16.9,22.6,17.8,22.2,18.5,21.6
	L18.5,21.6z M36.1,16.2c-1.6,0-2.9,1.3-2.9,2.8c0,1.6,1.3,2.9,2.8,2.9s2.9-1.3,2.9-2.8c0,0,0,0,0,0C39,17.5,37.7,16.2,36.1,16.2
	L36.1,16.2z"/>
</svg>
