<?xml version="1.0" encoding="utf-8"?>
<!-- Generator: Adobe Illustrator 25.2.0, SVG Export Plug-In . SVG Version: 6.00 Build 0)  -->
<svg version="1.1" id="Capa_1" xmlns="http://www.w3.org/2000/svg" xmlns:xlink="http://www.w3.org/1999/xlink" x="0px" y="0px"
	 viewBox="0 0 50 50" style="enable-background:new 0 0 50 50;" xml:space="preserve">
<style type="text/css">
	.st0{fill:#FFFFFF;}
</style>
<g>
	<path class="st0" d="M45.33,24.79c-1.86-2.49-3.72-4.98-5.59-7.46c-0.35-0.46-0.82-0.47-1.25-0.06c-0.37,0.35-0.73,0.72-1.09,1.08
		c-1.13,1.12-2.98,1.27-4.19,0.23c-0.81-0.7-1.43-0.7-2.22-0.03c-1.19,1.02-2.92,1.05-4.05-0.03c-0.35-0.34-0.68-0.69-1.03-1.02
		c-0.41-0.39-1.01-0.29-1.32,0.18c-1.25,1.95-2.5,3.9-3.73,5.86c-0.18,0.28-0.35,0.72-0.12,0.78c0.97,0.26,3.82,0.24,5.73,0.88
		c0.89,0.3,1.74,0.73,2.46,1.25c1.66,1.2,2.28,3.19,1.61,5.2c-0.1,0.32-0.4,0.61-0.36,0.94c0.1,0.8,1.14,1.08,1.98,1.56
		c1.64,0.96,3.42,1.69,5.2,2.34c0.75,0.27,1.55,0.42,2.35,0.42c1.7,0,3.39-0.01,5.08,0.02c0.32,0,0.58-0.26,0.58-0.58V24.91
		C45.36,24.87,45.34,24.83,45.33,24.79z"/>
	<path class="st0" d="M19.37,30.107c0-0.185-0.59-0.307-0.89-0.477c-1.83-1.01-1.83-2.42-1.66-3.17c0.17-0.77,0.706-1.337,1.62-1.94
		c0.092-0.181-0.11-0.36-0.27-0.59c-0.89-1.19-1.77-2.39-2.66-3.57c-1.42-1.89-3.79-1.88-5.2,0.03c-1.9,2.55-3.79,5.1-5.68,7.65
		v7.92c0,0.511,0.418,0.93,0.93,0.93h2.1c0,0,0,0.01,0,0.02c0,0,6.433,0.096,7.94,0.038c0.176-0.007,0.312-0.145,0.324-0.321
		c0.068-1.012,0.342-2.107,0.816-3.027c0.43-0.83,1-1.53,1.51-2.15c0.14-0.17,0.27-0.33,0.4-0.5
		C18.65,30.95,19.37,30.137,19.37,30.107z"/>
	<g>
		<path class="st0" d="M40.77,40.43c-0.07,0.46-0.36,0.66-1.01,0.66c-3.32-0.01-6.63-0.01-9.94-0.01c-3.26,0-6.51-0.01-9.76,0.02
			c-0.64,0-1-0.23-1.27-0.79c-0.93-1.9-1.29-3.84-0.28-5.79c0.44-0.85,1.11-1.57,1.71-2.33c0.38-0.48,0.85-0.9,1.23-1.39
			c0.49-0.66,0.46-1.24-0.18-1.76c-0.55-0.45-1.19-0.81-1.83-1.16c-0.53-0.29-0.76-0.57-0.67-0.98c0.1-0.44,0.42-0.64,1.02-0.62
			c2.04,0.08,4.09,0.16,6.05,0.82c0.67,0.22,1.34,0.56,1.92,0.97c0.99,0.71,1.27,1.8,0.88,2.95c-0.1,0.3-0.22,0.6-0.34,0.89
			c-0.29,0.68-0.16,1.3,0.27,1.87c0.68,0.93,1.61,1.55,2.59,2.11c2.38,1.37,4.95,2.3,7.54,3.18c0.44,0.16,0.89,0.29,1.33,0.44
			C40.63,39.71,40.84,39.98,40.77,40.43z"/>
	</g>
	<path class="st0" d="M37.99,15.22c0,0.186-0.61,0.34-0.88,0.6c-0.24,0.23-0.48,0.47-0.72,0.72L36,16.93
		c-0.42,0.41-1.09,0.47-1.48,0.13c-1.57-1.34-3.28-1.35-4.83-0.03c-0.37,0.32-0.96,0.44-1.36,0.05c-0.16-0.15-0.3-0.3-0.45-0.44
		c-0.2-0.2-0.39-0.4-0.6-0.6c-0.3-0.28-1.03-0.406-1.03-0.62c0-0.305,0.184-0.64,0.324-0.86c0.96-1.52,1.756-2.79,2.746-4.29
		c0.6-0.91,1.48-1.34,2.53-1.37c1.01,0.02,1.83,0.37,2.42,1.14c1.2,1.55,2.022,2.689,3.202,4.259
		C37.582,14.459,37.99,14.914,37.99,15.22z"/>
</g>
</svg>
