<?xml version="1.0" encoding="utf-8"?>
<!-- Generator: Adobe Illustrator 25.2.0, SVG Export Plug-In . SVG Version: 6.00 Build 0)  -->
<svg version="1.1" id="Capa_1" xmlns="http://www.w3.org/2000/svg" xmlns:xlink="http://www.w3.org/1999/xlink" x="0px" y="0px"
	 viewBox="0 0 250 50" style="enable-background:new 0 0 250 50;" xml:space="preserve">
<style type="text/css">
	.st0{fill:#FFFFFF;}
</style>
<g>
	<g>
		<polygon class="st0" points="10.8,11.1 11.6,12 10.8,12.8 10,12 		"/>
		<path class="st0" d="M16,20.1v-8.9l-2.6-4.4H9.3l-2.9,4.4h-4c-0.2,0-0.4,0.2-0.4,0.4v0.8c0,0.2,0.2,0.5,0.5,0.5h3.3v7.1H10
			l19.7,23.1h6.1L16,20.1z M10.8,13.6L9.2,12l1.6-1.6l1.6,1.6L10.8,13.6z"/>
		<polygon class="st0" points="9.5,20.9 28.4,43.2 24.3,43.2 17.3,34.7 14.5,34.7 14.5,43.2 12.1,43.1 12.1,34.8 14.7,32 7.2,23.1 
			6.9,23.4 13.9,32 11.4,34.5 10.3,34.5 10.3,41.8 11.3,43.2 10.1,43.2 9.6,42.2 9.1,43.2 7.7,43.2 8.9,41.8 8.9,34.3 2.5,26.6 
			2.5,24 5.6,20.9 		"/>
	</g>
	<g>
		<g>
			<path class="st0" d="M57.4,40.7c-3.9,0-7.1-1.3-9.5-3.8c-2.5-2.5-3.7-5.6-3.7-9.1c0-2.4,0.6-4.8,1.8-7.3c1.2-2.5,3-4.6,5.4-6.2
				c2.4-1.6,5.2-2.4,8.5-2.4c3.9,0,7.1,1.2,9.6,3.6c2.5,2.4,3.7,5.4,3.7,8.9c0,4.6-1.5,8.5-4.3,11.6C66,39.1,62.2,40.7,57.4,40.7z
				 M57.3,13.6c-2.7,0-5.2,1-7.4,3.1c-2.2,2-3.3,4.6-3.3,7.6c0,3.9,1.4,7.3,4.1,10.3c2.7,2.9,5.8,4.4,9.1,4.4c1.9,0,3.8-0.5,5.6-1.5
				c1.8-1,3.3-2.4,4.3-4.2c1-1.8,1.6-3.6,1.6-5.5c0-2.6-0.7-5.1-2.1-7.2c-1.4-2.2-3.3-3.9-5.5-5.1C61.3,14.2,59.2,13.6,57.3,13.6z"
				/>
			<path class="st0" d="M59.9,12c3.9,0,7.1,1.2,9.5,3.5c2.5,2.4,3.7,5.3,3.7,8.8c0,4.5-1.4,8.4-4.3,11.5c-2.9,3.1-6.6,4.7-11.4,4.7
				c-3.8,0-7-1.3-9.4-3.8c-2.4-2.5-3.7-5.5-3.7-9c0-2.4,0.6-4.8,1.8-7.3s3-4.5,5.3-6.1C53.8,12.8,56.6,12,59.9,12 M59.7,39.1
				c1.9,0,3.8-0.5,5.6-1.5c1.9-1,3.3-2.4,4.4-4.2c1.1-1.8,1.6-3.6,1.6-5.5c0-2.7-0.7-5.1-2.2-7.3c-1.4-2.2-3.3-3.9-5.6-5.2
				c-2.3-1.2-4.4-1.9-6.3-1.9c-2.7,0-5.2,1-7.5,3.1s-3.4,4.6-3.4,7.7c0,3.9,1.4,7.4,4.1,10.3C53.3,37.6,56.4,39.1,59.7,39.1
				 M59.9,11.8c-3.3,0-6.2,0.8-8.6,2.4c-2.4,1.6-4.2,3.7-5.4,6.2c-1.2,2.5-1.8,5-1.8,7.4c0,3.6,1.3,6.7,3.7,9.2
				c2.5,2.5,5.7,3.8,9.6,3.8c4.8,0,8.7-1.6,11.6-4.7c2.9-3.1,4.4-7.1,4.4-11.7c0-3.6-1.3-6.6-3.8-9C67.1,13,63.8,11.8,59.9,11.8
				L59.9,11.8z M59.7,38.8c-3.3,0-6.3-1.5-9-4.4c-2.7-2.9-4-6.3-4-10.2c0-3,1.1-5.5,3.3-7.5c2.2-2,4.6-3,7.3-3c1.9,0,4,0.6,6.2,1.8
				c2.2,1.2,4.1,2.9,5.5,5.1c1.4,2.1,2.1,4.6,2.1,7.2c0,1.8-0.5,3.7-1.6,5.4c-1,1.7-2.5,3.1-4.3,4.1C63.5,38.3,61.6,38.8,59.7,38.8
				L59.7,38.8z"/>
		</g>
		<g>
			<path class="st0" d="M98.1,40.5c-1.6,0-3-0.5-4.2-1.5c-1.2-1-3.2-3.6-6-7.8l0,0l0-0.1L85,26.9L82.6,27h-2.1v10.5
				c0,0.8,0.1,1.4,0.3,1.8c0.2,0.3,0.7,0.5,1.5,0.5h0.1v0.5h-7.4v-0.5l0.1,0c0.8,0,1.4-0.2,1.6-0.5c0.2-0.3,0.3-1,0.3-2v-22
				c0-0.7-0.1-1.3-0.3-1.7c-0.2-0.4-0.7-0.6-1.6-0.6l-0.1,0v-0.5h8c2,0,3.4,0,4.3,0.1c0.9,0.1,1.8,0.4,2.8,0.9
				c1,0.5,1.7,1.2,2.2,2.1c0.5,0.9,0.7,1.9,0.7,3.2c0,1.4-0.4,2.8-1.3,4.1c-0.8,1.3-2,2.3-3.5,3.2l1.9,2.9c0.4,0.8,1.6,2.4,3.4,4.9
				c1.8,2.5,3.2,4.1,4.2,4.6c1,0.5,1.9,0.8,2.9,0.8c0.9,0,2-0.4,3.1-1.1l0.1-0.1l0.2,0.6l-0.1,0.1C102.5,39.9,100.5,40.5,98.1,40.5z
				 M83.3,26c2.2,0,3.9-0.5,5-1.6s1.6-2.4,1.6-4.2c0-1.7-0.5-3.3-1.6-4.8c-1.1-1.5-3-2.2-5.6-2.2h-2.2V26H83.3z"/>
			<path class="st0" d="M83.1,12.4c2,0,3.4,0,4.3,0.1c0.9,0.1,1.8,0.4,2.7,0.9c0.9,0.5,1.6,1.2,2.1,2c0.5,0.8,0.7,1.9,0.7,3.1
				c0,1.4-0.4,2.7-1.3,4c-0.8,1.3-2,2.3-3.6,3.2l2,3c0.4,0.8,1.6,2.4,3.4,4.9c1.8,2.5,3.3,4.1,4.3,4.6c1,0.6,2,0.8,2.9,0.8
				c0.9,0,2-0.4,3.2-1.1l0.1,0.4c-1.5,1.2-3.5,1.8-5.9,1.8c-1.6,0-3-0.5-4.1-1.4c-1.2-0.9-3.2-3.6-6-7.8c0,0,0,0,0-0.1l-2.8-4.3
				l-2.5,0.1h-2.2v10.6c0,0.9,0.1,1.5,0.3,1.8c0.2,0.4,0.8,0.6,1.6,0.6v0.3h-7.1v-0.3c0.9,0,1.4-0.2,1.7-0.6c0.2-0.3,0.3-1,0.3-2.1
				v-22c0-0.7-0.1-1.3-0.3-1.8c-0.2-0.5-0.8-0.7-1.7-0.7v-0.3H83.1 M80.4,26.1h2.9c2.3,0,4-0.5,5.1-1.6c1.1-1.1,1.7-2.5,1.7-4.2
				c0-1.7-0.5-3.3-1.6-4.8c-1.1-1.5-3-2.3-5.7-2.3h-2.3v0V26.1 M83.1,12.2h-7.9H75v0.2v0.3v0.2l0.2,0c0.8,0,1.3,0.2,1.5,0.6
				c0.2,0.4,0.3,1,0.3,1.7v22c0,1.2-0.2,1.7-0.3,1.9c-0.1,0.2-0.5,0.4-1.5,0.4l-0.2,0v0.2v0.3v0.2h0.2h7.1h0.2v-0.2v-0.3v-0.2h-0.2
				c-0.7,0-1.2-0.1-1.4-0.4c-0.2-0.3-0.3-0.9-0.3-1.7V27.1h2L85,27l2.7,4.1c0,0,0,0.1,0.1,0.1c2.9,4.3,4.9,6.9,6.1,7.8
				c1.2,1,2.6,1.5,4.3,1.5c2.5,0,4.5-0.6,6-1.9l0.1-0.1l0-0.2l-0.1-0.4l-0.1-0.3l-0.3,0.2c-1.2,0.7-2.2,1-3.1,1
				c-0.9,0-1.8-0.3-2.8-0.8c-1-0.5-2.4-2.1-4.2-4.6c-1.8-2.5-3-4.2-3.4-4.9l-1.8-2.8c1.5-0.9,2.6-1.9,3.4-3.2
				c0.9-1.3,1.3-2.7,1.3-4.2c0-1.3-0.3-2.4-0.7-3.2c-0.5-0.9-1.2-1.6-2.2-2.1c-1-0.5-1.9-0.8-2.8-0.9C86.5,12.2,85.1,12.2,83.1,12.2
				L83.1,12.2z M80.6,13.4l2,0c2.6,0,4.5,0.7,5.5,2.2c1.1,1.5,1.6,3.1,1.6,4.7c0,1.7-0.5,3-1.6,4.1c-1.1,1-2.7,1.5-4.9,1.5h-2.7
				V13.4L80.6,13.4z"/>
		</g>
		<g>
			<path class="st0" d="M105.2,40.2v-0.5h0.1c0.9,0,1.4-0.2,1.6-0.5c0.2-0.3,0.3-1.1,0.3-2.4v-21c0-1.3-0.1-2.1-0.4-2.5
				c-0.2-0.3-0.6-0.5-1.3-0.5c-0.1,0-0.4,0-0.4,0v-0.5h7.6v0.5l-0.1,0c-0.1,0-0.1,0-0.2,0c-0.3,0-0.6,0.1-0.9,0.2
				c-0.4,0.1-0.6,0.3-0.7,0.6c-0.1,0.3-0.1,1-0.1,2v21.2c0,1.4,0.1,1.9,0.1,2.1c0.1,0.2,0.2,0.4,0.5,0.6c0.2,0.2,0.7,0.2,1.4,0.2
				h0.1v0.5H105.2z"/>
			<path class="st0" d="M112.7,12.4v0.3c-0.1,0-0.1,0-0.2,0c-0.3,0-0.6,0.1-1,0.2c-0.4,0.2-0.7,0.4-0.8,0.7c-0.1,0.3-0.1,1-0.1,2
				v21.2c0,1.2,0,1.9,0.1,2.1c0.1,0.3,0.3,0.5,0.5,0.6c0.3,0.2,0.7,0.3,1.4,0.3v0.3h-7.4v-0.3c0.9,0,1.5-0.2,1.7-0.5
				c0.2-0.4,0.3-1.2,0.3-2.4v-21c0-1.3-0.1-2.2-0.4-2.6c-0.2-0.4-0.7-0.5-1.4-0.5c-0.1,0-0.2,0-0.3,0v-0.3H112.7 M113,12.2h-0.2
				h-7.4h-0.2v0.2v0.3V13l0.3,0c0.1,0,0.2,0,0.3,0c0.6,0,1,0.1,1.2,0.4c0.2,0.3,0.3,0.9,0.3,2.5v21c0,1.5-0.2,2.1-0.3,2.3
				c-0.1,0.2-0.5,0.4-1.5,0.4h-0.2v0.2v0.3v0.2h0.2h7.4h0.2v-0.2v-0.3v-0.2h-0.2c-0.8,0-1.1-0.1-1.3-0.2c-0.2-0.1-0.4-0.3-0.4-0.5
				c0-0.1-0.1-0.6-0.1-2V15.6c0-1.3,0.1-1.8,0.1-2c0.1-0.2,0.3-0.4,0.6-0.5c0.3-0.1,0.6-0.2,0.9-0.2c0.1,0,0.1,0,0.2,0l0.3,0v-0.3
				v-0.3V12.2L113,12.2z"/>
		</g>
		<g>
			<path class="st0" d="M114.3,40.2l21.5-26.6h-14.1c-1.2,0-2,0.1-2.4,0.4c-0.4,0.3-0.7,1-0.9,2.2l0,0.1h-0.5l0.2-4h23.2L119.6,39
				h18.1c1,0,1.7-0.2,2.1-0.6c0.3-0.4,0.6-1.3,0.6-2.6l0-0.1h0.5v4.6H114.3z"/>
			<path class="st0" d="M140.9,12.4l-21.6,26.7h18.4c1.1,0,1.8-0.2,2.2-0.7c0.4-0.4,0.6-1.3,0.7-2.7h0.3v4.3h-26.3L136,13.5h-14.4
				c-1.2,0-2,0.2-2.5,0.5c-0.4,0.3-0.8,1.1-0.9,2.3H118l0.2-3.8H140.9 M141.4,12.2h-0.5h-22.8h-0.2l0,0.2l-0.2,3.8l0,0.3h0.3h0.3
				h0.2l0-0.2c0.2-1.4,0.6-1.9,0.8-2.1c0.4-0.3,1.2-0.4,2.3-0.4h13.9L114.3,40l-0.3,0.4h0.5h26.3h0.2v-0.2v-4.3v-0.2h-0.2h-0.3h-0.2
				l0,0.2c-0.1,1.6-0.4,2.2-0.6,2.5c-0.3,0.4-1,0.6-2,0.6h-17.8l21.2-26.2L141.4,12.2L141.4,12.2z"/>
		</g>
		<g>
			<path class="st0" d="M161.8,40.2v-0.5h0.1c0.7,0,0.8-0.3,0.8-0.6c0-0.3-0.1-0.8-0.4-1.5c0,0-0.1-0.1-0.1-0.3c0,0,0-0.1,0-0.1
				l-4-9.8h-8L146,37.9c-0.4,1-0.4,1.3-0.4,1.3c0,0.2,0.1,0.5,0.8,0.5h0.1v0.5h-4.4v-0.5h0.1c0.5,0,1-0.1,1.3-0.4
				c0.4-0.3,0.8-0.9,1.2-2l10.1-25.4h0.7l9.9,24.5c0,0.1,0.1,0.4,0.8,1.8c0.5,1,1.2,1.5,2.2,1.5h0.1v0.5H161.8z M157.6,26.5l-3.6-9
				l-3.6,9H157.6z"/>
			<path class="st0" d="M155.4,12l9.9,24.5c0,0.1,0.3,0.7,0.8,1.8c0.5,1.1,1.3,1.6,2.3,1.6v0.3h-6.5v-0.3c0.6,0,0.9-0.2,0.9-0.7
				c0-0.3-0.1-0.8-0.4-1.5c-0.1,0-0.1-0.1-0.1-0.2c0-0.1,0-0.2-0.1-0.2l-4-9.8h-8.1l-4.2,10.5c-0.3,0.8-0.4,1.2-0.4,1.4
				c0,0.4,0.3,0.6,0.9,0.6v0.3h-4.1v-0.3c0.6,0,1-0.1,1.4-0.4c0.4-0.3,0.8-1,1.2-2.1l10-25.3H155.4 M150.3,26.6h7.5l-3.7-9.4
				L150.3,26.6 M155.6,11.8h-0.2h-0.5h-0.2l-0.1,0.2l-10,25.3c-0.5,1.3-0.9,1.8-1.2,2c-0.3,0.2-0.7,0.4-1.2,0.4H142v0.2v0.3v0.2h0.2
				h4.1h0.2v-0.2v-0.3v-0.2h-0.2c-0.7,0-0.7-0.2-0.7-0.4c0-0.1,0-0.3,0.4-1.3l4.1-10.3h7.8l3.9,9.7l0,0.1c0,0,0,0,0,0.1
				c0,0.2,0.1,0.3,0.2,0.3c0.3,0.8,0.4,1.2,0.4,1.4c0,0.2,0,0.4-0.6,0.4h-0.2v0.2v0.3v0.2h0.2h6.5h0.2v-0.2v-0.3v-0.2h-0.2
				c-0.9,0-1.6-0.5-2.1-1.4c-0.6-1.3-0.7-1.6-0.7-1.7v0l0,0l-9.9-24.5L155.6,11.8L155.6,11.8z M150.7,26.3l3.4-8.5l3.4,8.5H150.7
				L150.7,26.3z"/>
		</g>
		<g>
			<path class="st0" d="M170.1,40.2v-0.5h0.1c0.8,0,1.3-0.2,1.5-0.5c0.2-0.3,0.3-1.2,0.3-2.6V15.8c0-1,0-1.7-0.1-2
				c-0.1-0.3-0.2-0.6-0.5-0.7c-0.3-0.2-0.7-0.2-1.3-0.2h-0.1v-0.5h7.3c2.1,0,3.6,0.1,4.5,0.3c0.9,0.2,1.8,0.5,2.6,1
				c0.8,0.5,1.5,1.2,2.1,2.2c0.6,0.9,0.9,2,0.9,3.3c0,2.3-1.1,4.1-3.2,5.5c1.9,0.4,3.3,1.2,4.3,2.5c1,1.3,1.5,3,1.5,4.8
				c0,1.8-0.4,3.4-1.3,4.8c-0.9,1.4-1.9,2.4-3,2.9c-1.1,0.5-2.7,0.7-4.8,0.7H170.1z M175.5,34.5c0,1.2,0,2,0.1,2.3
				c0.1,0.3,0.3,0.7,0.6,1.1c0.3,0.4,0.8,0.7,1.5,0.9c0.7,0.2,1.8,0.4,3.2,0.4c2.1,0,3.6-0.5,4.5-1.5c0.9-1,1.3-2.4,1.3-4.3
				c0-2-0.4-3.6-1.2-4.9c-0.8-1.2-1.6-2-2.6-2.3c-1-0.3-2.8-0.4-5.4-0.4h-2V34.5z M178.8,25c2.2,0,3.7-0.6,4.4-1.9
				c0.7-1.3,1.1-2.6,1.1-3.8c0-1.4-0.3-2.5-0.8-3.4c-0.6-0.9-1.4-1.6-2.5-2.1c-1.1-0.5-2.7-0.7-4.8-0.7h-0.6V25H178.8z"/>
			<path class="st0" d="M177.5,12.4c2.1,0,3.6,0.1,4.5,0.3c0.9,0.2,1.7,0.5,2.5,1s1.5,1.2,2,2.1c0.6,0.9,0.8,2,0.8,3.2
				c0,2.3-1.2,4.2-3.5,5.5c2,0.3,3.5,1.2,4.5,2.5c1,1.3,1.5,2.9,1.5,4.8c0,1.7-0.4,3.3-1.3,4.8s-1.9,2.4-3,2.8s-2.7,0.7-4.7,0.7
				h-10.7v-0.3c0.9,0,1.4-0.2,1.6-0.5c0.2-0.3,0.4-1.2,0.4-2.6V15.8c0-1,0-1.7-0.1-2c-0.1-0.4-0.2-0.6-0.6-0.8
				c-0.3-0.2-0.8-0.3-1.3-0.3v-0.3H177.5 M175.4,25.2h3.4c2.3,0,3.8-0.7,4.5-2c0.7-1.3,1.1-2.6,1.1-3.9c0-1.4-0.3-2.6-0.9-3.5
				c-0.6-0.9-1.4-1.6-2.5-2.1c-1.1-0.5-2.7-0.7-4.9-0.7h-0.7v0V25.2 M181,39.4c2.2,0,3.7-0.5,4.6-1.5c0.9-1,1.3-2.5,1.3-4.4
				c0-2-0.4-3.7-1.2-5c-0.8-1.3-1.7-2.1-2.7-2.3c-1-0.3-2.8-0.4-5.5-0.4h-2.2v8.8c0,1.2,0,2,0.1,2.4c0.1,0.4,0.3,0.7,0.6,1.1
				c0.3,0.4,0.9,0.7,1.6,1C178.5,39.3,179.6,39.4,181,39.4 M177.5,12.2h-7.2H170v0.2v0.3V13h0.2c0.5,0,0.9,0.1,1.2,0.2
				c0.2,0.1,0.4,0.3,0.4,0.6c0.1,0.3,0.1,1,0.1,2v20.9c0,1.8-0.2,2.3-0.3,2.5c-0.2,0.3-0.7,0.4-1.4,0.4H170v0.2v0.3v0.2h0.2h10.7
				c2,0,3.7-0.2,4.8-0.7c1.2-0.5,2.2-1.5,3.1-2.9c0.9-1.5,1.3-3.1,1.3-4.9c0-1.9-0.5-3.6-1.6-4.9c-0.9-1.2-2.3-2-4-2.4
				c2-1.4,3-3.2,3-5.4c0-1.2-0.3-2.3-0.9-3.3c-0.6-1-1.3-1.7-2.1-2.2c-0.8-0.5-1.7-0.9-2.6-1C181.1,12.3,179.6,12.2,177.5,12.2
				L177.5,12.2z M175.7,24.9V13.3l0.5,0c2.1,0,3.7,0.2,4.8,0.7c1.1,0.5,1.9,1.1,2.4,2c0.5,0.9,0.8,2,0.8,3.4c0,1.2-0.4,2.5-1.1,3.8
				c-0.7,1.2-2.1,1.8-4.3,1.8H175.7L175.7,24.9z M175.7,26h1.9c2.6,0,4.4,0.1,5.4,0.4c0.9,0.3,1.8,1,2.5,2.2
				c0.8,1.2,1.1,2.9,1.1,4.8c0,1.9-0.4,3.3-1.3,4.3c-0.8,0.9-2.3,1.4-4.4,1.4c-1.4,0-2.4-0.1-3.1-0.4c-0.7-0.2-1.2-0.5-1.5-0.9
				c-0.3-0.4-0.5-0.7-0.6-1.1c-0.1-0.3-0.1-1.1-0.1-2.3V26L175.7,26z"/>
		</g>
		<g>
			<path class="st0" d="M191.7,40.2v-0.5h0.1c0.9,0,1.4-0.2,1.6-0.5c0.2-0.3,0.3-1.1,0.3-2.4v-21c0-1.3-0.1-2.1-0.4-2.5
				c-0.2-0.3-0.6-0.5-1.3-0.5c-0.1,0-0.4,0-0.4,0v-0.5h7.6v0.5l-0.1,0c-0.1,0-0.1,0-0.2,0c-0.3,0-0.6,0.1-0.9,0.2
				c-0.4,0.1-0.6,0.3-0.7,0.6c-0.1,0.3-0.1,1-0.1,2v21.2c0,1.4,0.1,1.9,0.1,2.1c0.1,0.2,0.2,0.4,0.5,0.6c0.2,0.2,0.7,0.2,1.4,0.2
				h0.1v0.5H191.7z"/>
			<path class="st0" d="M199.2,12.4v0.3c-0.1,0-0.1,0-0.2,0c-0.3,0-0.6,0.1-1,0.2c-0.4,0.2-0.7,0.4-0.8,0.7c-0.1,0.3-0.1,1-0.1,2
				v21.2c0,1.2,0,1.9,0.1,2.1s0.3,0.5,0.5,0.6c0.3,0.2,0.7,0.3,1.4,0.3v0.3h-7.4v-0.3c0.9,0,1.5-0.2,1.7-0.5
				c0.2-0.4,0.3-1.2,0.3-2.4v-21c0-1.3-0.1-2.2-0.4-2.6c-0.2-0.4-0.7-0.5-1.4-0.5c-0.1,0-0.2,0-0.3,0v-0.3H199.2 M199.4,12.2h-0.2
				h-7.4h-0.2v0.2v0.3V13l0.3,0c0.1,0,0.2,0,0.3,0c0.6,0,1,0.1,1.2,0.4c0.2,0.3,0.3,0.9,0.3,2.5v21c0,1.5-0.2,2.1-0.3,2.3
				c-0.1,0.2-0.5,0.4-1.5,0.4h-0.2v0.2v0.3v0.2h0.2h7.4h0.2v-0.2v-0.3v-0.2h-0.2c-0.8,0-1.1-0.1-1.3-0.2c-0.2-0.1-0.4-0.3-0.4-0.5
				c0-0.1-0.1-0.6-0.1-2V15.6c0-1.3,0.1-1.8,0.1-2c0.1-0.2,0.3-0.4,0.6-0.5c0.3-0.1,0.6-0.2,0.9-0.2c0.1,0,0.1,0,0.2,0l0.3,0v-0.3
				v-0.3V12.2L199.4,12.2z"/>
		</g>
		<g>
			<path class="st0" d="M208.5,40.2v-0.5l0.1,0c0.9-0.1,1.5-0.2,1.7-0.5c0.2-0.3,0.3-0.9,0.3-1.8v-24h-6.8c-0.8,0-1.2,0.1-1.3,0.1
				c-0.1,0-0.2,0.1-0.2,0.5c0,0.2,0,0.4,0.1,0.7l0,0.2h-0.5l-1.4-3.6h0.5l0,0.1c0.2,0.4,0.4,0.7,0.6,0.8c0.1,0.1,0.5,0.1,1.4,0.1
				h18.4c0.7,0,1.2,0,1.5-0.1c0.3-0.1,0.5-0.3,0.6-0.7l0-0.1h0.6l-1.4,3.6h-0.5l0-0.2c0-0.2,0.1-0.4,0.1-0.8c0-0.3-0.1-0.4-0.2-0.4
				c-0.2-0.1-0.5-0.1-0.9-0.1H214V37c0,1,0.1,1.6,0.2,2c0.1,0.3,0.3,0.5,0.6,0.6c0.3,0.1,0.7,0.1,1.3,0.1h0.1v0.5H208.5z"/>
			<path class="st0" d="M224,11.5l-1.3,3.3h-0.3c0.1-0.2,0.1-0.5,0.1-0.8c0-0.3-0.1-0.5-0.3-0.6c-0.2-0.1-0.5-0.1-1-0.1h-7.2V37
				c0,1,0.1,1.6,0.2,2s0.4,0.6,0.6,0.7c0.3,0.1,0.7,0.1,1.3,0.1v0.3h-7.5v-0.3c0.9-0.1,1.5-0.2,1.8-0.5c0.2-0.3,0.4-0.9,0.4-1.9
				V13.3h-6.9c-0.7,0-1.2,0-1.4,0.1c-0.2,0.1-0.3,0.3-0.3,0.6c0,0.2,0.1,0.4,0.1,0.8H202l-1.3-3.3h0.3c0.2,0.5,0.4,0.7,0.7,0.8
				c0.2,0.1,0.7,0.1,1.4,0.1h18.4c0.7,0,1.2,0,1.6-0.1c0.3-0.1,0.6-0.4,0.7-0.8H224 M224.3,11.2H224h-0.3h-0.2l-0.1,0.2
				c-0.1,0.4-0.3,0.6-0.5,0.7c-0.3,0.1-0.8,0.1-1.5,0.1H203c-0.9,0-1.2-0.1-1.3-0.1c-0.1,0-0.3-0.2-0.5-0.7l-0.1-0.1h-0.2h-0.3h-0.4
				l0.1,0.3l1.3,3.3l0.1,0.2h0.2h0.3h0.3l-0.1-0.3c-0.1-0.4-0.1-0.6-0.1-0.7c0-0.3,0.1-0.4,0.2-0.4c0.1,0,0.4-0.1,1.3-0.1h6.7v23.8
				c0,1.1-0.2,1.5-0.3,1.7c-0.1,0.1-0.5,0.4-1.6,0.5l-0.2,0v0.2v0.3v0.2h0.2h7.5h0.2v-0.2v-0.3v-0.2h-0.2c-0.6,0-1,0-1.2-0.1
				c-0.2-0.1-0.4-0.2-0.5-0.5c-0.1-0.3-0.2-1-0.2-1.9V13.6h7c0.5,0,0.8,0.1,0.9,0.1c0,0,0.2,0.1,0.2,0.3c0,0.3,0,0.6-0.1,0.7
				l-0.1,0.3h0.3h0.3h0.2l0.1-0.2l1.3-3.3L224.3,11.2L224.3,11.2z"/>
		</g>
		<g>
			<path class="st0" d="M240.5,40.2v-0.5h0.1c0.7,0,0.8-0.3,0.8-0.6c0-0.3-0.1-0.8-0.4-1.5c0,0-0.1-0.1-0.1-0.3c0-0.1,0-0.1,0-0.1
				l-4-9.8h-8l-4.2,10.4c-0.4,1-0.4,1.3-0.4,1.3c0,0.2,0.1,0.5,0.8,0.5h0.1v0.5h-4.4v-0.5h0.1c0.5,0,1-0.1,1.3-0.4
				c0.4-0.3,0.8-0.9,1.2-2l10.1-25.4h0.7l9.9,24.5c0,0.1,0.1,0.4,0.8,1.8c0.5,1,1.2,1.5,2.2,1.5h0.1v0.5H240.5z M236.3,26.5l-3.6-9
				l-3.6,9H236.3z"/>
			<path class="st0" d="M234.1,12l9.9,24.5c0,0.1,0.3,0.7,0.8,1.8c0.5,1.1,1.3,1.6,2.3,1.6v0.3h-6.5v-0.3c0.6,0,0.9-0.2,0.9-0.7
				c0-0.3-0.1-0.8-0.4-1.5c-0.1,0-0.1-0.1-0.1-0.2c0-0.1,0-0.2-0.1-0.2l-4-9.8h-8.1l-4.2,10.5c-0.3,0.8-0.4,1.2-0.4,1.4
				c0,0.4,0.3,0.6,0.9,0.6v0.3H221v-0.3c0.6,0,1-0.1,1.4-0.4c0.4-0.3,0.8-1,1.2-2.1l10-25.3H234.1 M229,26.6h7.5l-3.7-9.4L229,26.6
				 M234.3,11.8h-0.2h-0.5h-0.2l-0.1,0.2l-10,25.3c-0.5,1.3-0.9,1.8-1.2,2c-0.3,0.2-0.7,0.4-1.2,0.4h-0.2v0.2v0.3v0.2h0.2h4.1h0.2
				v-0.2v-0.3v-0.2h-0.2c-0.7,0-0.7-0.2-0.7-0.4c0-0.1,0-0.3,0.4-1.3l4.1-10.3h7.8l3.9,9.7l0,0.1c0,0,0,0,0,0.1
				c0,0.2,0.1,0.3,0.2,0.3c0.3,0.8,0.4,1.2,0.4,1.4c0,0.2,0,0.4-0.6,0.4h-0.2v0.2v0.3v0.2h0.2h6.5h0.2v-0.2v-0.3v-0.2h-0.2
				c-0.9,0-1.6-0.5-2.1-1.4c-0.6-1.3-0.7-1.6-0.7-1.7v0l0,0l-9.9-24.5L234.3,11.8L234.3,11.8z M229.4,26.3l3.4-8.5l3.4,8.5H229.4
				L229.4,26.3z"/>
		</g>
	</g>
</g>
</svg>
