<?xml version="1.0" encoding="utf-8"?>
<!-- Generator: Adobe Illustrator 25.2.0, SVG Export Plug-In . SVG Version: 6.00 Build 0)  -->
<svg version="1.1" id="Capa_1" xmlns="http://www.w3.org/2000/svg" xmlns:xlink="http://www.w3.org/1999/xlink" x="0px" y="0px"
	 viewBox="0 0 50 50" style="enable-background:new 0 0 50 50;" xml:space="preserve">
<style type="text/css">
	.st0{fill:#FFFFFF;}
</style>
<g>
	<path class="st0" d="M34.8,12.7v2.5h1.9v-2.5H34.8z M34.8,12.7v2.5h1.9v-2.5H34.8z M34.8,12.7v2.5h1.9v-2.5H34.8z M34.8,12.7v2.5
		h1.9v-2.5H34.8z M34.8,12.7v2.5h1.9v-2.5H34.8z M34.8,12.7v2.5h1.9v-2.5H34.8z M18.2,22.7c-0.9,0-1.8,0.8-1.8,1.8
		c0,0.9,0.8,1.8,1.8,1.8s1.8-0.8,1.8-1.8C20,23.6,19.3,22.7,18.2,22.7z M34.8,12.7v2.5h1.9v-2.5H34.8z M18.2,22.7
		c-0.9,0-1.8,0.8-1.8,1.8c0,0.9,0.8,1.8,1.8,1.8s1.8-0.8,1.8-1.8C20,23.6,19.3,22.7,18.2,22.7z M34.8,12.7v2.5h1.9v-2.5H34.8z
		 M18.2,22.7c-0.9,0-1.8,0.8-1.8,1.8c0,0.9,0.8,1.8,1.8,1.8s1.8-0.8,1.8-1.8C20,23.6,19.3,22.7,18.2,22.7z M34.8,12.7v2.5h1.9v-2.5
		H34.8z M34.8,12.7v2.5h1.9v-2.5H34.8z M34.8,12.7v2.5h1.9v-2.5H34.8z M34.8,12.7v2.5h1.9v-2.5H34.8z M18.2,22.7
		c-0.9,0-1.8,0.8-1.8,1.8c0,0.9,0.8,1.8,1.8,1.8s1.8-0.8,1.8-1.8C20,23.6,19.3,22.7,18.2,22.7z M34.8,12.7v2.5h1.9v-2.5H34.8z
		 M18.2,22.7c-0.9,0-1.8,0.8-1.8,1.8c0,0.9,0.8,1.8,1.8,1.8s1.8-0.8,1.8-1.8C20,23.6,19.3,22.7,18.2,22.7z M34.8,12.7v2.5h1.9v-2.5
		H34.8z M18.2,22.7c-0.9,0-1.8,0.8-1.8,1.8c0,0.9,0.8,1.8,1.8,1.8s1.8-0.8,1.8-1.8C20,23.6,19.3,22.7,18.2,22.7z M34.8,12.7v2.5h1.9
		v-2.5H34.8z M18.2,22.7c-0.9,0-1.8,0.8-1.8,1.8c0,0.9,0.8,1.8,1.8,1.8s1.8-0.8,1.8-1.8C20,23.6,19.3,22.7,18.2,22.7z M34.8,12.7
		v2.5h1.9v-2.5H34.8z M34.8,12.7v2.5h1.9v-2.5H34.8z M34.8,12.7v2.5h1.9v-2.5H34.8z M34.8,12.7v2.5h1.9v-2.5H34.8z"/>
	<rect x="34.9" y="12.7" class="st0" width="1.9" height="2.5"/>
	<path class="st0" d="M20,24.5c0,1-0.8,1.8-1.8,1.8s-1.8-0.8-1.8-1.8c0-1,0.8-1.8,1.8-1.8C19.3,22.7,20,23.6,20,24.5z"/>
	<path class="st0" d="M18.2,26.3c-0.9,0-1.8-0.8-1.8-1.8c0-1,0.8-1.8,1.8-1.8c1,0,1.8,0.8,1.8,1.8C20,25.6,19.2,26.3,18.2,26.3z"/>
	<path class="st0" d="M42.9,5H20.8c-0.7,0.4-0.8,0.8-0.8,1.8v6.6H7.8c-1.1,0-1.5,0.4-1.5,1.4v28.8c0,1,0.5,1.4,1.5,1.4h20.8
		c0.9,0,1.4-0.4,1.4-1.4v-6.8h12.2c1.1,0,1.5-0.5,1.5-1.5V6.5C43.8,5.8,43.5,5.3,42.9,5z M37.8,17.6h-4.1c-0.8,0-1.3-0.5-1.3-1.3
		v-4.5c0-0.8,0.5-1.3,1.3-1.3h4.1c0.8,0,1.3,0.5,1.3,1.3v4.5C39.1,17.2,38.6,17.6,37.8,17.6z M39.1,20.8c0,0.7-0.5,1.1-1.3,1.1h-4.1
		c-0.8,0-1.2-0.5-1.2-1.1c0-0.7,0.5-1.1,1.2-1.1h4.2C38.6,19.6,39.1,20.1,39.1,20.8z M32.4,30.1c0-0.7,0.5-1.2,1.2-1.2h4.2
		c0.8,0,1.2,0.5,1.2,1.2c0,0.7-0.5,1.1-1.2,1.1h-4.2C32.9,31.2,32.4,30.8,32.4,30.1z M38,26.6h-4.2c-0.8,0-1.2-0.5-1.2-1.1
		c0-0.7,0.5-1.1,1.2-1.2H38c0.7,0,1.2,0.6,1.2,1.2C39.2,26.1,38.7,26.6,38,26.6z M22.3,9.2c0.1,0.1,0.1,0.1,0.2,0.2
		c1.2,1.2,2.5,2.5,3.7,3.9h-3.9V9.2z M8.7,33.7c1,1.4,2.1,2.7,3.1,4.1c-1,1-2.1,2.1-3.1,3.1V33.7z M10.3,42.6c1-1,2-2.1,3-3
		c0.8,1,1.5,2,2.4,3H10.3z M17.7,33.2c-1.7-1.6-3.2-3.4-4-5.7c-0.7-1.8-0.5-3.4,0.2-5.1c0.9-2.1,3-2.9,4.9-2.7
		c2.5,0.2,4.1,1.9,4.5,4.3c0,0.5,0.1,0.9,0.1,1.1c0,1.5-0.4,2.6-1,3.7c-0.9,1.6-2.1,3-3.4,4.2C18.6,33.5,18.1,33.5,17.7,33.2z
		 M20.6,42.6c0.8-0.9,1.6-2,2.4-2.9c1,0.9,2.1,2,3,2.9H20.6z M27.8,40.8c-1.1-1-2.2-2.1-3.2-3.2c1-1.2,2.1-2.5,3.2-4V40.8z"/>
	<path class="st0" d="M20,24.5c0,1-0.8,1.8-1.8,1.8s-1.8-0.8-1.8-1.8c0-1,0.8-1.8,1.8-1.8C19.3,22.7,20,23.6,20,24.5z"/>
	<path class="st0" d="M20,24.5c0,1-0.8,1.8-1.8,1.8s-1.8-0.8-1.8-1.8c0-1,0.8-1.8,1.8-1.8C19.3,22.7,20,23.6,20,24.5z"/>
</g>
</svg>
