<?xml version="1.0" encoding="utf-8"?>
<!-- Generator: Adobe Illustrator 25.2.0, SVG Export Plug-In . SVG Version: 6.00 Build 0)  -->
<svg version="1.1" id="b96b4e18-26c1-4d38-aeba-258cc118a630"
	 xmlns="http://www.w3.org/2000/svg" xmlns:xlink="http://www.w3.org/1999/xlink" x="0px" y="0px" viewBox="0 0 50 50"
	 style="enable-background:new 0 0 50 50;" xml:space="preserve">
<style type="text/css">
	.st0{fill:#FFFFFF;}
</style>
<path class="st0" d="M15.3,7.4h19.5c0.6,0.2,1.1,0.4,1.6,0.7c1.1,0.7,1.7,2,1.6,3.3c0,9,0,18,0,27.1c0,0.1,0,0.3,0,0.4
	c-0.1,2.1-1.7,3.7-3.8,3.7c-6.1,0-12.2,0-18.4,0c-0.4,0-0.9-0.1-1.3-0.2c-1.6-0.6-2.7-2.2-2.6-3.9c0-8.3,0-16.6,0-24.9
	c0-0.8,0-1.6,0-2.5c0-1.6,1-2.9,2.5-3.4C14.7,7.6,15,7.5,15.3,7.4z M25.1,39.8h5.4c1.2,0,2.4,0,3.6,0c0.6,0.1,1.2-0.4,1.3-1
	c0.1-0.6,0.1-1.3,0-1.9c-0.1-0.7-0.7-1-1.5-1H16.3c-0.1,0-0.3,0-0.4,0c-0.6,0.1-1.1,0.6-1.1,1.2c0,0.4,0,0.8,0,1.2
	c-0.1,0.7,0.4,1.4,1.1,1.5c0.1,0,0.3,0,0.4,0L25.1,39.8z M26.4,14.6v-1.2c0-0.4,0-0.8,0-1.1c0-0.7-0.5-1.3-1.3-1.4
	c-0.7,0-1.3,0.5-1.4,1.3c0,0,0,0.1,0,0.1c0,0.6,0,1.2,0,1.8v0.5c-1.1,0-2.1,0-3.1,0c-0.8,0-1.4,0.6-1.5,1.4c0,0.8,0.6,1.4,1.4,1.5
	c0,0,0.1,0,0.1,0c0.9,0,1.8,0,2.7,0h0.4v0.5c0,2.5,0,5,0,7.4c0,0.2,0,0.4,0.1,0.6c0.1,0.5,0.6,0.9,1.2,1c0.6,0.1,1.1-0.3,1.3-0.8
	c0.1-0.3,0.1-0.5,0.1-0.8c0-2.5,0-5,0-7.4v-0.4h0.4c0.9,0,1.8,0,2.7,0c0.5,0,0.9-0.3,1.2-0.7c0.4-0.7,0.2-1.5-0.5-1.9
	c-0.2-0.1-0.5-0.2-0.7-0.2C28.5,14.6,27.5,14.6,26.4,14.6L26.4,14.6z"/>
</svg>
