<?xml version="1.0" encoding="utf-8"?>
<!-- Generator: Adobe Illustrator 25.2.0, SVG Export Plug-In . SVG Version: 6.00 Build 0)  -->
<svg version="1.1" id="a4154a8b-7bcd-4f56-8968-e9dc0941f9c4"
	 xmlns="http://www.w3.org/2000/svg" xmlns:xlink="http://www.w3.org/1999/xlink" x="0px" y="0px" viewBox="0 0 50 50"
	 style="enable-background:new 0 0 50 50;" xml:space="preserve">
<style type="text/css">
	.st0{fill:#FFFFFF;}
</style>
<g>
	<g>
		<path class="st0" d="M35,37.6C35,37.7,34.9,37.6,35,37.6L35,37.6z"/>
		<path class="st0" d="M35,25.4c-4,0-7.2,3.2-7.2,7.2c0,4,3.2,7.2,7.2,7.2c4,0,7.2-3.2,7.2-7.2C42.2,28.6,39,25.4,35,25.4z M35,37.6
			c-2.8,0-5.1-2.4-5-5.2c0.1-2.7,2.3-4.9,5.1-4.9s5,2.3,5,5.1C40.1,35.4,37.8,37.6,35,37.6z"/>
		<circle class="st0" cx="35" cy="32.6" r="2.8"/>
	</g>
	<path class="st0" d="M26.7,19.8l-3.5,3.6c0.1,0,0.2,0.1,0.3,0.2c0.9,0.9,1.8,1.8,2.7,2.7c0.1,0.1,0.2,0.2,0.2,0.4
		c0,2.3,0,6.8,0,8.3c0,0.3-0.2,0.5-0.5,0.5l0,0H24c-0.3,0-0.5-0.2-0.5-0.5l0,0c0-1.3,0-4.6,0-6.3c0-0.2-0.1-0.5-0.3-0.6
		c-1.4-1.2-2.7-2.4-4.1-3.6c-0.7-0.6-1.1-1.6-1-2.5c0.1-0.7,0.4-1.3,0.8-1.7c1.4-1.4,2.7-2.8,4.1-4.1c1-0.9,2.6-1,3.6,0
		c1.1,1,2.1,2,3.2,3c1.3,1.2,3,1.9,4.8,1.9c0.1,0-0.2,0,0.2,0c0.1,0,0.2,0.1,0.2,0.2l0,0c0,0.7-0.1,1.5-0.1,2.3
		c0,0.2-0.2,0.4-0.4,0.4C31.5,23.7,28.6,22.3,26.7,19.8z"/>
	<path class="st0" d="M32.9,13.1c0,1.6-1.3,2.9-2.9,2.9s-2.9-1.3-2.9-2.9s1.3-2.9,2.9-2.9C31.6,10.3,32.9,11.6,32.9,13.1z"/>
	<g>
		<path class="st0" d="M14.9,37.6C14.9,37.7,14.8,37.6,14.9,37.6L14.9,37.6z"/>
		<path class="st0" d="M15,25.4c-4,0-7.2,3.2-7.2,7.2c0,4,3.2,7.2,7.2,7.2c4,0,7.2-3.2,7.2-7.2C22.1,28.6,18.9,25.4,15,25.4z
			 M14.9,37.6c-2.8,0-5.1-2.4-5-5.2c0.1-2.7,2.3-4.9,5.1-4.9s5,2.3,5,5.1C20,35.4,17.7,37.6,14.9,37.6z"/>
		<circle class="st0" cx="14.9" cy="32.6" r="2.8"/>
	</g>
</g>
</svg>
