<?xml version="1.0" encoding="utf-8"?>
<!-- Generator: Adobe Illustrator 25.2.0, SVG Export Plug-In . SVG Version: 6.00 Build 0)  -->
<svg version="1.1" id="Capa_1" xmlns="http://www.w3.org/2000/svg" xmlns:xlink="http://www.w3.org/1999/xlink" x="0px" y="0px"
	 viewBox="0 0 50 50" style="enable-background:new 0 0 50 50;" xml:space="preserve">
<style type="text/css">
	.st0{fill:#FFFFFF;}
	.st1{fill-rule:evenodd;clip-rule:evenodd;fill:#FFFFFF;}
</style>
<g>
	<path class="st0" d="M45.447,33.644c-1.065,0-1.779,0.768-1.779,1.819c0,0.997,0.728,1.832,1.779,1.832
		c1.051,0,1.779-0.835,1.779-1.832C47.226,34.412,46.512,33.644,45.447,33.644z M45.447,36.77c-0.755,0-1.091-0.687-1.091-1.307
		c0-0.66,0.404-1.307,1.091-1.307c0.687,0,1.091,0.647,1.091,1.307C46.539,36.083,46.202,36.77,45.447,36.77z M42.914,36.568
		c-0.202,0.135-0.472,0.202-0.701,0.202c-0.822,0-1.159-0.687-1.159-1.307c0-0.66,0.404-1.307,1.118-1.307
		c0.216,0,0.458,0.054,0.701,0.148l0.054-0.526c-0.189-0.081-0.512-0.135-0.782-0.135c-1.064,0-1.779,0.768-1.779,1.819
		c0,0.997,0.728,1.832,1.779,1.832c0.243,0,0.539-0.027,0.808-0.148L42.914,36.568z M38.629,32.081v5.134h0.647v-5.134H38.629z
		 M37.282,37.214c-0.013-0.108-0.027-0.296-0.027-0.687v-1.442c0-0.957-0.404-1.442-1.401-1.442c-0.445,0-0.835,0.135-1.145,0.323
		l0.027,0.552c0.256-0.229,0.647-0.364,1.011-0.364c0.647,0,0.862,0.31,0.862,0.916c-0.256-0.013-0.431-0.013-0.674-0.013
		c-0.674,0-1.63,0.27-1.63,1.145c0,0.755,0.526,1.091,1.28,1.091c0.593,0,0.93-0.323,1.078-0.539h0.013v0.458H37.282z
		 M36.608,35.853c0,0.526-0.337,0.916-0.97,0.916c-0.296,0-0.647-0.202-0.647-0.566c0-0.62,0.862-0.674,1.213-0.674
		c0.135,0,0.27,0.013,0.404,0.013V35.853z M31.407,36.689l2.008-2.412v-0.552H30.76v0.512h1.913l-2.021,2.412v0.566h2.843v-0.525
		H31.407z M29.521,36.77c-0.296,0-0.552-0.216-0.552-0.62v-1.913h0.93v-0.512h-0.93v-1.011l-0.633,0.202v0.809H27.54v0.512h0.795
		v2.048c0,0.701,0.404,1.011,1.064,1.011c0.216,0,0.404-0.054,0.552-0.094v-0.552C29.857,36.716,29.709,36.77,29.521,36.77z
		 M25.209,33.644c-1.078,0-1.792,0.768-1.792,1.819c0,0.997,0.728,1.832,1.792,1.832c1.038,0,1.765-0.835,1.765-1.832
		C26.974,34.412,26.26,33.644,25.209,33.644z M25.209,36.77c-0.768,0-1.105-0.687-1.105-1.307c0-0.66,0.404-1.307,1.105-1.307
		c0.674,0,1.078,0.647,1.078,1.307C26.287,36.083,25.95,36.77,25.209,36.77z M21.086,33.644c-0.62,0-1.011,0.31-1.186,0.566h-0.013
		v-0.485h-0.62v4.918h0.647v-1.913h0.013c0.202,0.323,0.552,0.566,1.159,0.566c1.064,0,1.509-0.93,1.509-1.886
		C22.595,34.466,22.096,33.644,21.086,33.644z M20.938,36.77c-0.728,0-1.024-0.714-1.024-1.294c0-0.66,0.337-1.32,1.038-1.32
		c0.687,0,0.97,0.66,0.957,1.293C21.921,36.002,21.625,36.77,20.938,36.77z M18,37.214c-0.013-0.108-0.027-0.296-0.027-0.687v-1.442
		c0-0.957-0.404-1.442-1.401-1.442c-0.445,0-0.822,0.135-1.145,0.323l0.027,0.552c0.27-0.229,0.66-0.364,1.011-0.364
		c0.647,0,0.862,0.31,0.862,0.916c-0.243-0.013-0.431-0.013-0.674-0.013c-0.674,0-1.63,0.27-1.63,1.145
		c0,0.755,0.526,1.091,1.28,1.091c0.593,0,0.93-0.323,1.091-0.539h0.013v0.458H18z M17.326,35.853c0,0.526-0.323,0.916-0.97,0.916
		c-0.296,0-0.647-0.202-0.647-0.566c0-0.62,0.862-0.674,1.213-0.674c0.135,0,0.27,0.013,0.404,0.013V35.853z M14.268,36.568
		c-0.202,0.135-0.472,0.202-0.687,0.202c-0.835,0-1.172-0.687-1.172-1.307c0-0.66,0.404-1.307,1.132-1.307
		c0.202,0,0.445,0.054,0.687,0.148l0.054-0.526c-0.175-0.081-0.512-0.135-0.768-0.135c-1.078,0-1.792,0.768-1.792,1.819
		c0,0.997,0.728,1.832,1.792,1.832c0.229,0,0.539-0.027,0.795-0.148L14.268,36.568z M8.878,36.689l2.021-2.412v-0.552H8.231v0.512
		h1.913l-2.008,2.412v0.566h2.83v-0.525H8.878z M5.536,32.431H4.809l-2.035,4.783h0.714l0.499-1.213h2.331l0.485,1.213h0.755
		L5.536,32.431z M4.202,35.449l0.943-2.371l0.957,2.371H4.202z"/>
	<g>
		<path class="st1" d="M40.314,28.591h6.05l-7.761-17.234h-6.239l-0.862,1.9c-0.552-1.159-1.725-1.9-3.032-1.9h-7.424
			c-1.293,0-2.479,0.741-3.032,1.9l-0.862-1.9h-6.239L3.152,28.591h6.063l4.837-10.779l0.93,2.021l-4.042,8.758h6.023l0.997-2.183
			L18,26.489c0.566,1.267,1.832,2.075,3.22,2.075l7.074,0.027c1.388,0,2.654-0.809,3.234-2.088l0.04-0.094l0.997,2.183h6.023
			c0,0-2.129-4.568-4.042-8.731l0.916-2.035L40.314,28.591z M23.174,14.874c0.296-0.62,0.903-1.011,1.59-1.011
			c0.687,0,1.294,0.391,1.577,1.011l2.21,4.891l-2.183,4.824c-0.283,0.633-0.916,1.024-1.603,1.024
			c-0.701,0-1.334-0.391-1.617-1.024l-2.183-4.824L23.174,14.874z M30.76,26.166c-0.431,0.97-1.401,1.59-2.466,1.59
			c-1.064,0-7.074-0.013-7.074-0.013c-1.078,0-2.021-0.62-2.466-1.59c-2.115-4.662-4.231-9.311-6.333-13.973h4.19l5.78,12.747
			c0.418,0.93,1.347,1.536,2.371,1.536c1.011,0,1.954-0.606,2.358-1.536l1.9-4.15l2.088,4.635L30.76,26.166z M34.088,18.876
			c-0.876-1.9-1.657-3.584-2.129-4.608l0.943-2.088h4.204L34.088,18.876z"/>
	</g>
</g>
</svg>
